<?xml version="1.0" standalone="no"?>
<!DOCTYPE svg PUBLIC "-//W3C//DTD SVG 20010904//EN"
 "http://www.w3.org/TR/2001/REC-SVG-20010904/DTD/svg10.dtd">
<svg version="1.0" xmlns="http://www.w3.org/2000/svg"
 width="480.000000pt" height="480.000000pt" viewBox="0 0 480.000000 480.000000"
 preserveAspectRatio="xMidYMid meet">
<metadata>
Created by potrace 1.11, written by Peter Selinger 2001-2013
</metadata>
<g transform="translate(0.000000,480.000000) scale(0.100000,-0.100000)"
fill="#000000" stroke="none">
<path d="M2140 4599 c-484 -56 -955 -285 -1305 -634 -346 -347 -566 -795 -631
-1286 -21 -158 -15 -496 11 -639 131 -724 568 -1311 1210 -1626 160 -78 262
-116 430 -159 203 -52 361 -68 604 -62 284 7 497 48 738 142 763 298 1289 970
1399 1785 16 125 18 393 3 528 -104 942 -812 1722 -1739 1917 -201 43 -515 57
-720 34z m1101 -768 c-7 -61 -10 -114 -7 -119 3 -5 18 -12 33 -15 16 -3 57
-24 93 -46 l65 -40 94 92 c101 98 101 96 3 -39 l-62 -87 38 -41 c22 -23 51
-63 66 -89 16 -26 29 -47 29 -47 1 0 53 14 116 30 63 17 116 29 117 27 2 -1
-41 -22 -94 -45 -130 -56 -124 -52 -111 -90 6 -18 16 -33 22 -34 14 -1 86 -7
177 -12 36 -3 78 -9 93 -15 16 -6 43 -11 62 -11 19 0 36 -4 39 -9 4 -5 24 -12
46 -16 48 -8 126 -58 171 -109 46 -53 72 -186 36 -186 -7 0 -6 -4 3 -10 12 -8
12 -10 -5 -10 -15 0 -17 -2 -7 -9 8 -5 12 -17 10 -27 -3 -16 -14 -20 -61 -22
-68 -4 -81 19 -19 34 30 7 38 14 40 37 2 20 9 27 25 28 20 1 21 2 2 6 -40 10
-41 42 -2 44 l22 0 -21 9 c-12 4 -24 16 -28 25 -5 13 -14 16 -35 12 -42 -9
-50 19 -8 29 l31 6 -54 50 c-50 46 -58 49 -92 44 -35 -6 -38 -4 -35 16 2 18
-4 23 -33 29 -19 4 -48 11 -65 16 -32 11 -66 10 -102 -2 -18 -6 -23 -3 -23 9
0 14 -9 17 -52 15 -29 -1 -57 0 -63 1 -5 1 -20 2 -32 1 -21 -1 -23 -6 -23 -66
l0 -64 88 -26 c127 -38 146 -46 97 -40 -116 14 -185 17 -186 9 -3 -45 -40
-161 -63 -204 -13 -23 -11 -28 53 -100 68 -77 68 -77 -42 5 -19 14 -38 25 -43
25 -5 0 -20 -16 -34 -36 -14 -19 -36 -49 -49 -66 -24 -29 -24 -31 -13 -118 15
-110 15 -246 1 -347 -27 -186 -144 -427 -264 -543 l-47 -45 35 65 c20 36 43
85 53 110 9 25 23 52 31 61 16 19 53 144 52 174 0 20 0 20 -9 0 -5 -11 -9 -15
-9 -9 -1 7 -12 15 -26 18 -14 4 -25 11 -25 16 0 13 7 13 32 -1 19 -10 20 -9
14 14 -3 14 -2 29 4 32 15 9 12 203 -5 291 -8 44 -24 106 -34 139 -11 33 -22
84 -25 114 -5 58 -7 61 -29 65 -18 2 -47 25 -47 37 0 5 7 6 15 3 9 -4 21 5 32
25 10 17 24 32 31 33 9 2 -4 28 -36 73 -166 236 -387 381 -671 440 -81 17
-104 14 -44 -5 21 -7 42 -19 46 -26 4 -8 20 -14 35 -14 15 0 34 -5 42 -10 15
-11 8 -10 -66 5 -16 4 -23 2 -19 -5 3 -5 18 -10 32 -10 20 0 23 -3 14 -13 -6
-8 -8 -17 -4 -20 10 -11 -20 -8 -58 4 -19 6 -42 20 -51 31 -10 11 -18 16 -18
11 0 -5 6 -15 13 -22 10 -12 8 -13 -8 -7 -38 14 -259 19 -346 7 -48 -6 -120
-23 -160 -36 l-74 -25 38 35 c20 19 32 35 27 35 -6 0 -21 -9 -32 -20 -12 -11
-27 -19 -33 -17 -24 9 -158 -76 -237 -151 -64 -61 -42 -17 26 52 203 206 469
316 765 316 l116 0 30 33 c17 17 46 45 64 60 l34 28 -79 80 c-43 43 -75 79
-71 79 5 0 43 -26 85 -58 104 -79 97 -76 140 -50 52 32 151 78 168 78 16 0 16
-3 -22 140 -12 47 -21 86 -20 88 2 1 23 -44 48 -100 l44 -103 103 -2 c56 0
108 -4 116 -7 11 -4 21 16 40 77 13 45 28 97 31 115 14 68 16 18 5 -87z
m-1752 -20 c1 -30 3 -32 18 -20 15 12 16 12 11 -3 -8 -19 15 -27 77 -29 32 0
36 -2 20 -9 -11 -5 -39 -9 -62 -9 -44 -1 -51 -7 -33 -29 7 -9 7 -9 -2 -2 -21
18 -28 11 -29 -27 -1 -21 -4 -49 -8 -63 -6 -20 -9 -12 -15 37 -6 53 -9 61 -24
56 -15 -6 -15 -5 -3 10 12 15 9 17 -30 17 -24 0 -51 5 -59 10 -11 7 -5 10 25
10 48 0 71 12 59 31 -6 12 -5 12 8 1 15 -12 18 -7 24 50 7 54 9 59 15 33 4
-16 7 -45 8 -64z m636 34 c0 -30 -39 -27 -43 3 -3 20 0 23 20 20 15 -2 23 -10
23 -23z m-287 -625 c-7 -11 -15 -15 -17 -9 -2 6 3 15 10 20 20 12 21 11 7 -11z
m-1030 -132 c-6 -18 -28 -21 -28 -4 0 9 7 16 16 16 9 0 14 -5 12 -12z m-168
-163 c0 -8 -4 -15 -9 -15 -13 0 -22 16 -14 24 11 11 23 6 23 -9z m248 -103 c2
-7 -3 -12 -12 -12 -9 0 -16 7 -16 16 0 17 22 14 28 -4z m3348 11 c-15 -4 -16
-7 -5 -14 11 -7 11 -9 -3 -9 -10 0 -17 -6 -15 -12 1 -7 -8 -14 -20 -16 -17 -3
-20 1 -16 17 3 12 12 21 20 21 8 0 11 5 8 10 -4 6 5 10 22 9 19 -1 22 -3 9 -6z
m-33 -82 c-5 -21 -56 -47 -72 -37 -11 7 -3 37 13 48 6 4 23 8 38 8 21 0 25 -4
21 -19z m-55 -58 c-10 -2 -26 -2 -35 0 -10 3 -2 5 17 5 19 0 27 -2 18 -5z
m-20 -20 c-10 -2 -26 -2 -35 0 -10 3 -2 5 17 5 19 0 27 -2 18 -5z m-13 -23 c4
-6 -7 -10 -25 -10 -18 0 -29 4 -25 10 3 6 15 10 25 10 10 0 22 -4 25 -10z
m-2966 -44 c12 -26 12 -31 -3 -41 -8 -7 -13 -15 -9 -19 4 -4 -1 -4 -11 0 -11
4 -17 3 -14 -2 9 -14 -49 -15 -60 -1 -5 7 -13 22 -16 34 -6 18 -1 26 26 43 43
26 69 22 87 -14z m2932 15 c-7 -5 -10 -14 -7 -20 11 -17 -43 -33 -86 -26 -21
4 -38 11 -38 16 0 5 0 12 0 17 0 6 60 17 120 20 18 1 21 -1 11 -7z m-86 -71
c18 -8 17 -9 -7 -9 -16 -1 -28 4 -28 9 0 12 8 12 35 0z m-2735 -20 c0 -5 -7
-10 -15 -10 -8 0 -15 5 -15 10 0 6 7 10 15 10 8 0 15 -4 15 -10z m2720 -10 c0
-5 -11 -10 -25 -10 -14 0 -25 5 -25 10 0 6 11 10 25 10 14 0 25 -4 25 -10z
m-2770 -14 c0 -2 -7 -7 -16 -10 -8 -3 -12 -2 -9 4 6 10 25 14 25 6z m2733 -13
c-7 -2 -21 -2 -30 0 -10 3 -4 5 12 5 17 0 24 -2 18 -5z m-35 -31 c-10 -2 -18
-12 -18 -23 0 -12 -7 -19 -19 -19 -11 0 -21 -5 -23 -12 -3 -7 -14 -9 -34 -3
-21 6 -24 9 -11 12 9 3 17 13 17 24 0 12 7 19 19 19 11 0 22 4 25 9 3 4 18 6
33 3 19 -4 23 -7 11 -10z m-2758 -7 c0 -8 -9 -15 -19 -15 -11 0 -28 -3 -38 -7
-13 -4 -12 -1 6 15 28 26 51 28 51 7z m-90 -49 c0 -2 -7 -7 -16 -10 -8 -3 -12
-2 -9 4 6 10 25 14 25 6z m2745 -26 c-2 -4 -16 -5 -30 -3 -13 3 -23 9 -20 13
2 4 16 5 30 3 13 -3 23 -9 20 -13z m-2795 -10 c0 -6 -8 -13 -17 -17 -10 -3
-30 -15 -45 -25 -37 -26 -47 -23 -12 4 16 13 35 28 42 35 16 16 32 17 32 3z
m2745 -10 c18 -8 17 -9 -7 -9 -16 -1 -28 4 -28 9 0 12 8 12 35 0z m-35 -30
c12 -8 9 -10 -12 -10 -15 0 -30 5 -33 10 -8 13 25 13 45 0z m260 -36 c0 -8 -7
-14 -15 -14 -15 0 -21 21 -9 33 10 9 24 -2 24 -19z m-352 -5 c12 -5 22 -16 22
-25 0 -14 -8 -16 -47 -11 -27 2 -40 3 -30 0 18 -5 24 -23 8 -23 -21 0 -40 13
-35 22 4 6 1 14 -6 18 -7 4 -10 15 -6 25 6 17 38 15 94 -6z m52 11 c0 -5 -9
-10 -19 -10 -11 0 -23 5 -26 10 -4 6 5 10 19 10 14 0 26 -4 26 -10z m-2767
-14 c4 -10 -4 -17 -24 -21 -16 -4 -44 -19 -62 -33 l-32 -27 30 36 c43 52 79
70 88 45z m2617 -66 c8 -5 12 -12 9 -15 -8 -8 -39 5 -39 16 0 11 11 11 30 -1z
m-2746 -34 c-3 -9 -10 -16 -14 -16 -4 0 -19 -11 -34 -25 -22 -20 -25 -29 -17
-39 9 -11 6 -16 -16 -24 -32 -11 -83 -59 -83 -78 0 -7 -11 -25 -25 -40 -29
-31 -32 -46 -9 -42 28 5 27 -21 -1 -28 -31 -8 -45 -31 -45 -78 0 -26 -4 -36
-16 -36 -8 0 -12 -4 -9 -10 3 -5 1 -10 -4 -10 -11 0 -16 24 -11 45 15 61 24
91 29 95 13 10 41 60 41 72 0 7 16 29 35 48 19 19 35 37 35 41 0 10 142 150
147 146 2 -2 1 -12 -3 -21z m2715 -2 c2 -2 2 -7 -2 -10 -8 -9 -47 6 -47 17 0
9 37 3 49 -7z m-886 -149 c26 -54 33 -110 19 -147 -6 -16 -11 -15 -49 10 -33
21 -48 40 -69 90 -15 34 -25 64 -23 66 13 11 67 35 79 36 9 0 27 -23 43 -55z
m607 15 c8 -5 11 -12 7 -16 -4 -4 -15 0 -24 9 -18 18 -8 23 17 7z m-52 -38 c2
-7 -2 -10 -12 -6 -9 3 -16 11 -16 16 0 13 23 5 28 -10z m-62 -29 c-7 -7 -26 7
-26 19 0 6 6 6 15 -2 9 -7 13 -15 11 -17z m-122 -24 c26 -31 27 -49 1 -49 -17
0 -67 59 -59 71 10 17 32 9 58 -22z m61 10 c11 -17 -1 -21 -15 -4 -8 9 -8 15
-2 15 6 0 14 -5 17 -11z m-114 -61 c11 -21 11 -22 -4 -9 -10 7 -17 17 -17 22
0 15 9 10 21 -13z m-61 -29 c0 -6 -4 -7 -10 -4 -5 3 -10 11 -10 16 0 6 5 7 10
4 6 -3 10 -11 10 -16z m-60 -25 c0 -8 -4 -12 -10 -9 -5 3 -10 13 -10 21 0 8 5
12 10 9 6 -3 10 -13 10 -21z m-1019 -6 c52 -15 113 -68 138 -121 27 -55 28
-146 2 -202 -49 -109 -189 -165 -299 -120 -47 20 -109 80 -129 125 -19 45 -20
145 -1 190 45 107 172 163 289 128z m959 -21 c0 -5 -4 -5 -10 -2 -5 3 -10 14
-10 23 0 15 2 15 10 2 5 -8 10 -19 10 -23z m-115 -57 c-11 -17 -25 -11 -37 16
-10 21 -9 27 3 34 10 7 17 2 27 -16 7 -13 10 -29 7 -34z m49 45 c3 -8 1 -15
-3 -15 -5 0 -11 7 -15 15 -3 8 -1 15 3 15 5 0 11 -7 15 -15z m-124 -51 c0 -8
-4 -12 -10 -9 -5 3 -10 13 -10 21 0 8 5 12 10 9 6 -3 10 -13 10 -21z m-60 -20
c0 -8 -4 -12 -10 -9 -5 3 -10 13 -10 21 0 8 5 12 10 9 6 -3 10 -13 10 -21z
m-1960 5 c0 -7 11 -8 30 -4 39 9 39 -10 1 -30 -36 -18 -45 -31 -30 -41 8 -5 9
-3 4 6 -5 8 -4 11 3 7 13 -9 9 -42 -6 -42 -7 0 -12 4 -12 8 1 4 -6 15 -15 23
-18 19 -20 44 -2 44 8 0 7 4 -3 10 -13 9 -13 11 0 20 20 13 30 13 30 -1z
m1900 -37 c0 -7 -4 -10 -10 -7 -5 3 -10 16 -10 28 0 18 2 19 10 7 5 -8 10 -21
10 -28z m-178 -29 c-3 -36 -18 -57 -34 -47 -13 8 -9 92 5 97 20 8 31 -11 29
-50z m107 20 c0 -25 -1 -25 -8 -8 -5 11 -7 23 -4 28 8 14 13 7 12 -20z m-59
-20 c0 -20 -3 -24 -11 -16 -7 7 -9 19 -6 27 10 24 17 19 17 -11z m-120 -32 c0
-11 -4 -23 -10 -26 -6 -4 -10 5 -10 19 0 14 5 26 10 26 6 0 10 -9 10 -19z
m-1567 -36 l33 -34 37 19 c47 26 58 8 21 -33 -16 -17 -22 -26 -13 -19 13 10
24 9 54 -4 20 -8 44 -13 52 -10 8 3 24 -1 37 -9 12 -8 26 -12 31 -8 4 5 5 0 2
-9 -6 -18 4 -24 17 -10 10 9 56 10 56 1 0 -5 -5 -11 -12 -15 -17 -10 -68 -12
-68 -3 0 5 -8 5 -17 2 -16 -6 -17 -5 -3 12 14 19 14 19 -10 4 -31 -19 -34 -18
-94 9 -26 12 -52 19 -57 16 -5 -3 -9 -1 -9 5 0 6 -6 8 -12 6 -7 -3 -24 5 -38
18 -14 12 -40 33 -58 46 -26 18 -31 26 -21 37 18 22 35 17 72 -21z m1507 21
c0 -8 -4 -18 -10 -21 -5 -3 -10 3 -10 14 0 12 5 21 10 21 6 0 10 -6 10 -14z
m-60 -15 c0 -11 -4 -23 -10 -26 -6 -4 -10 5 -10 19 0 14 5 26 10 26 6 0 10 -9
10 -19z m1468 -23 c-3 -7 -11 -13 -18 -13 -7 0 -15 6 -17 13 -3 7 4 12 17 12
13 0 20 -5 18 -12z m-2465 -62 c12 -31 -82 -102 -99 -74 -3 5 -13 7 -21 4 -30
-12 -6 19 28 36 20 9 41 23 48 32 17 20 37 21 44 2z m202 -36 c3 -5 13 -6 21
-3 14 5 14 3 3 -15 -8 -12 -18 -21 -24 -20 -5 0 -18 -2 -28 -7 -11 -4 -23 -3
-29 3 -6 6 -17 8 -24 5 -22 -8 -16 15 6 27 11 6 20 7 20 3 0 -4 5 -2 12 5 14
14 35 16 43 2z m85 2 c0 -5 -9 -17 -20 -27 -16 -14 -20 -15 -20 -4 0 16 19 39
32 39 4 0 8 -4 8 -8z m38 -12 c-13 -20 -28 -27 -28 -12 0 10 22 32 32 32 5 0
3 -9 -4 -20z m52 11 c0 -5 -7 -14 -15 -21 -12 -10 -15 -10 -15 2 0 8 3 18 7
21 9 10 23 9 23 -2z m-365 -21 c-10 -11 -23 -20 -28 -20 -6 0 -2 9 8 20 10 11
23 20 28 20 6 0 2 -9 -8 -20z m40 0 c-10 -11 -23 -20 -28 -20 -6 0 -2 9 8 20
10 11 23 20 28 20 6 0 2 -9 -8 -20z m55 12 c0 -13 -23 -32 -39 -32 -11 0 -10
4 4 20 19 21 35 26 35 12z m2920 -83 c0 -5 -7 -9 -15 -9 -15 0 -20 12 -9 23 8
8 24 -1 24 -14z m-1002 -221 c-6 -18 -28 -21 -28 -4 0 9 7 16 16 16 9 0 14 -5
12 -12z m-728 -299 c0 -5 -7 -9 -15 -9 -15 0 -20 12 -9 23 8 8 24 -1 24 -14z
m-282 -221 c-6 -18 -28 -21 -28 -4 0 9 7 16 16 16 9 0 14 -5 12 -12z m280
-149 c-2 -6 -8 -10 -13 -10 -5 0 -11 4 -13 10 -2 6 4 11 13 11 9 0 15 -5 13
-11z"/>
<path d="M4210 3106 c0 -2 7 -7 16 -10 8 -3 12 -2 9 4 -6 10 -25 14 -25 6z"/>
<path d="M4248 3023 c7 -3 16 -2 19 1 4 3 -2 6 -13 5 -11 0 -14 -3 -6 -6z"/>
<path d="M755 1520 c-3 -6 1 -7 9 -4 18 7 21 14 7 14 -6 0 -13 -4 -16 -10z"/>
</g>
</svg>
